<?xml version="1.0" standalone="no"?>
<!DOCTYPE svg PUBLIC "-//W3C//DTD SVG 20010904//EN"
 "http://www.w3.org/TR/2001/REC-SVG-20010904/DTD/svg10.dtd">
<svg version="1.0" xmlns="http://www.w3.org/2000/svg"
 width="408.000000pt" height="408.000000pt" viewBox="0 0 408.000000 408.000000"
 preserveAspectRatio="xMidYMid meet">
<metadata>
Created by potrace 1.11, written by Peter Selinger 2001-2013
</metadata>
<g transform="translate(0.000000,408.000000) scale(0.100000,-0.100000)"
fill="#000000" stroke="none">
<path d="M455 3449 c-184 -48 -320 -153 -394 -306 -63 -129 -61 -98 -61 -803
1 -737 2 -745 85 -915 94 -193 241 -296 446 -312 277 -21 508 143 603 427 49
148 50 175 50 815 0 548 -1 606 -18 670 -51 195 -205 352 -409 417 -86 27
-213 30 -302 7z"/>
<path d="M1925 3455 c-199 -41 -341 -153 -435 -343 -15 -31 -31 -73 -36 -92
-4 -19 -9 -42 -12 -50 -2 -8 -5 -301 -7 -650 -2 -599 -4 -640 -23 -727 -20
-90 -42 -148 -84 -228 -97 -183 -294 -345 -487 -401 -96 -28 -153 -35 -281
-36 -55 -1 -100 -3 -100 -5 0 -8 41 -43 101 -85 134 -96 314 -170 494 -203
168 -31 426 -26 585 11 14 3 32 7 41 9 47 9 235 78 288 105 135 68 284 180
373 281 29 33 58 66 63 72 50 57 142 234 166 317 51 184 53 209 53 885 0 319
-4 604 -8 633 -13 95 -52 192 -107 267 -135 187 -371 284 -584 240z"/>
<path d="M3370 3455 c-173 -34 -302 -122 -395 -268 -40 -63 -79 -159 -90 -222
-4 -22 -9 -335 -10 -695 -2 -584 -4 -664 -20 -740 -44 -214 -132 -380 -281
-532 -84 -86 -153 -139 -271 -209 -51 -30 -93 -57 -93 -61 0 -18 195 -77 300
-92 183 -26 398 -26 520 -1 14 3 39 8 55 10 79 14 211 62 320 116 258 128 450
313 555 535 30 64 75 211 86 281 3 21 9 56 13 78 9 51 7 1279 -3 1320 -26 113
-81 223 -148 296 -36 40 -127 108 -178 134 -108 55 -241 73 -360 50z"/>
</g>
</svg>
